name C:\Users\u0101727\Documents\MyRepositories\upper-imu-dc\Results\main_mocap_tracking\Case_10\FLX01_orientations_groundFrame.mot
datacolumns 13
datarows 25
range 5.01000000 5.25000000
endheader 
time	radius_imu_[0][0]	radius_imu_[0][1]	radius_imu_[0][2]	radius_imu_[1][0]	radius_imu_[1][1]	radius_imu_[1][2]	radius_imu_[2][0]	radius_imu_[2][1]	radius_imu_[2][2]	radius_imu_x	radius_imu_y	radius_imu_z	
          5.01000000	          0.32797229	         -0.87783257	          0.34906182	         -0.32541431	          0.24190510	          0.91410472	         -0.88687074	         -0.41339073	         -0.20632111	         -1.79278493	          0.35656976	          1.21323958	
          5.02000000	          0.32681371	         -0.87383224	          0.36001392	         -0.32311555	          0.25466684	          0.91145002	         -0.88813802	         -0.41420046	         -0.19912017	         -1.78588228	          0.36828281	          1.21290220	
          5.03000000	          0.32526605	         -0.86977251	          0.37107651	         -0.32194762	          0.26711390	          0.90829505	         -0.88912976	         -0.41490474	         -0.19313810	         -1.78031381	          0.38016803	          1.21293177	
          5.04000000	          0.32317211	         -0.86567460	          0.38231830	         -0.32216046	          0.27922726	          0.90456883	         -0.88981595	         -0.41549926	         -0.18864767	         -1.77639919	          0.39230390	          1.21350090	
          5.05000000	          0.32044265	         -0.86155851	          0.39374286	         -0.32379247	          0.29100258	          0.90026437	         -0.89021062	         -0.41597407	         -0.18571652	         -1.77423363	          0.40469983	          1.21471662	
          5.06000000	          0.31711198	         -0.85743759	          0.40526629	         -0.32657827	          0.30246091	          0.89546861	         -0.89038566	         -0.41631499	         -0.18410650	         -1.77356868	          0.41727009	          1.21655995	
          5.07000000	          0.31334943	         -0.85331471	          0.41673269	         -0.32998137	          0.31364932	          0.89035745	         -0.89046304	         -0.41650702	         -0.18329613	         -1.77382779	          0.42984806	          1.21886882	
          5.08000000	          0.30941912	         -0.84918218	          0.42795962	         -0.33333374	          0.32463186	          0.88515692	         -0.89058881	         -0.41653786	         -0.18261376	         -1.77424856	          0.44223401	          1.22137481	
          5.09000000	          0.30560672	         -0.84502530	          0.43879013	         -0.33601263	          0.33547563	          0.88008614	         -0.89089845	         -0.41639927	         -0.18141556	         -1.77408282	          0.45425182	          1.22377734	
          5.10000000	          0.30214677	         -0.84082786	          0.44912787	         -0.33757598	          0.34623854	          0.87530642	         -0.89148740	         -0.41608578	         -0.17922844	         -1.77276535	          0.46578898	          1.22582127	
          5.11000000	          0.29917878	         -0.83657702	          0.45894548	         -0.33781376	          0.35696289	          0.87089572	         -0.89239785	         -0.41559162	         -0.17581151	         -1.76999349	          0.47680793	          1.22734705	
          5.12000000	          0.29673864	         -0.83226595	          0.46827297	         -0.33672639	          0.36767473	          0.86685099	         -0.89362270	         -0.41490805	         -0.17114261	         -1.76571975	          0.48733519	          1.22830444	
          5.13000000	          0.29477039	         -0.82789418	          0.47718094	         -0.33447563	          0.37838613	          0.86310486	         -0.89511813	         -0.41402315	         -0.16537340	         -1.76010487	          0.49744407	          1.22874338	
          5.14000000	          0.29314202	         -0.82346584	          0.48576926	         -0.33134408	          0.38909770	          0.85954295	         -0.89681596	         -0.41292492	         -0.15878964	         -1.75347407	          0.50724302	          1.22879906	
          5.15000000	          0.29166722	         -0.81898573	          0.49415849	         -0.32769522	          0.39980258	          0.85602205	         -0.89863568	         -0.41160694	         -0.15176840	         -1.74626789	          0.51686661	          1.22866897	
          5.16000000	          0.29015102	         -0.81445252	          0.50247336	         -0.32389813	          0.41049468	          0.85239903	         -0.90050118	         -0.41007464	         -0.14469420	         -1.73894288	          0.52645712	          1.22856194	
          5.17000000	          0.28846489	         -0.80984997	          0.51081409	         -0.32020744	          0.42118129	          0.84857146	         -0.90236091	         -0.40834954	         -0.13782397	         -1.73180913	          0.53613148	          1.22861285	
          5.18000000	          0.28662403	         -0.80513969	          0.51922706	         -0.31664754	          0.43189411	          0.84451277	         -0.90420186	         -0.40646963	         -0.13115427	         -1.72486724	          0.54594630	          1.22879261	
          5.19000000	          0.28482019	         -0.80026039	          0.52769381	         -0.31297759	          0.44269091	          0.84027959	         -0.90604773	         -0.40448493	         -0.12437626	         -1.71774705	          0.55588330	          1.22886674	
          5.20000000	          0.28337968	         -0.79513618	          0.53614775	         -0.30877533	          0.45364412	          0.83598134	         -0.90793929	         -0.40244932	         -0.11696491	         -1.70980724	          0.56586685	          1.22843902	
          5.21000000	          0.28265605	         -0.78969207	          0.54451078	         -0.30361126	          0.46481974	          0.83172280	         -0.90990426	         -0.40041108	         -0.10837529	         -1.70036847	          0.57580573	          1.22707270	
          5.22000000	          0.28289723	         -0.78387112	          0.55273432	         -0.29724425	          0.47625426	          0.82754320	         -0.91192928	         -0.39840677	         -0.09827017	         -1.68899212	          0.58564177	          1.22444633	
          5.23000000	          0.28413596	         -0.77764673	          0.56083181	         -0.28976796	          0.48793763	          0.82337804	         -0.91394819	         -0.39646240	         -0.08669648	         -1.67570342	          0.59539014	          1.22048687	
          5.24000000	          0.28614453	         -0.77102587	          0.56889404	         -0.28165577	          0.49980812	          0.81906158	         -0.91585552	         -0.39460227	         -0.07414652	         -1.66107644	          0.60516045	          1.21543003	
          5.25000000	          0.28847472	         -0.76404248	          0.57708008	         -0.27367977	          0.51176137	          0.81437073	         -0.91754113	         -0.39286051	         -0.06147275	         -1.64613842	          0.61514884	          1.20977991	
